# xmcd CD database file
#
# Track frame offsets:
#	150
#	14296
#	28566
#	45589
#	63490
#	80903
#	100644
#	115410
#	134389
#	154663
#	169455
#	183680
#	206106
#
# Disc length: 3045 seconds
#
# Revision: 0
# Processed by: cddbd v1.5.2PL0 Copyright (c) Steve Scherf et al.
# Submitted via: CDex 1.50Beta6
#
DISCID=b60be30d
DTITLE=John Steed - Prodigal Road
DYEAR=2006
DGENRE=Country
TTITLE0=1-Time of My Life
TTITLE1=2-Got Church?
TTITLE2=3-I'm Your Man
TTITLE3=4-Sacrifical Love
TTITLE4=5-Country Boy Heaven
TTITLE5=6-I've Sinned Around Enough To Know
TTITLE6=7-Mission Possible
TTITLE7=8-Prodigal Road
TTITLE8=9-Spend Some Time With Me
TTITLE9=10-I Gottcha Covered
TTITLE10=11-The Rock and A Hard Place
TTITLE11=12-See You In The Morning
TTITLE12=13-Fly
EXTD=YEAR: 2006
EXTT0=
EXTT1=
EXTT2=
EXTT3=
EXTT4=
EXTT5=
EXTT6=
EXTT7=
EXTT8=
EXTT9=
EXTT10=
EXTT11=
EXTT12=
PLAYORDER=
